<?xml version="1.0" standalone="no"?>
<!DOCTYPE svg PUBLIC "-//W3C//DTD SVG 20010904//EN"
 "http://www.w3.org/TR/2001/REC-SVG-20010904/DTD/svg10.dtd">
<svg version="1.0" xmlns="http://www.w3.org/2000/svg"
 width="136.000000pt" height="136.000000pt" viewBox="0 0 136.000000 136.000000"
 preserveAspectRatio="xMidYMid meet">
<metadata>
Created by potrace 1.11, written by Peter Selinger 2001-2013
</metadata>
<g transform="translate(0.000000,136.000000) scale(0.100000,-0.100000)"
fill="#000000" stroke="none">
<path d="M290 1342 c-22 -12 -44 -35 -57 -62 l-23 -44 0 -618 c0 -340 2 -618
3 -618 2 0 106 47 231 105 125 58 231 105 236 105 5 0 111 -47 236 -105 125
-58 229 -105 231 -105 2 0 2 282 1 628 -3 704 0 672 -78 712 -37 19 -58 20
-392 20 -323 0 -356 -2 -388 -18z"/>
</g>
</svg>
